Coordinates
nRows=17
nColumns=34

# SIMM Motion File Header:
name Coordinates
datacolumns 34
datarows 17
otherdata 1
range 0.20000000 0.23800000

Units are S.I. units (second, meters, Newtons, ...)
Angles are in degrees.

endheader
time	pelvis_tz	pelvis_tx	pelvis_ty	pelvis_tilt	pelvis_list	pelvis_rotation	hip_flexion_r	hip_adduction_r	hip_rotation_r	knee_r_tx	knee_r_ty	knee_angle_r	tib_pat_r_tx	tib_pat_r_ty	tib_pat_r_r1	ankle_angle_r	subtalar_angle_r	mtp_angle_r	hip_flexion_l	hip_adduction_l	hip_rotation_l	knee_l_tx	knee_l_ty	knee_angle_l	tib_pat_l_tx	tib_pat_l_ty	tib_pat_l_r1	ankle_angle_l	subtalar_angle_l	mtp_angle_l	lumbar_extension	lumbar_bending	lumbar_rotation
      0.20000000	     -0.26140035	      0.04976348	      0.92001444	     -2.64318673	     -1.61612626	     -1.19838965	     10.97646118	      3.77607059	     13.96256227	     -0.00352831	     -0.41380015	     -8.42963182	      0.04552554	     -0.02094053	      8.06121344	      3.13216628	      0.00000000	      0.00000000	      4.50649984	      1.54320874	      3.02699388	      0.00401296	     -0.42221344	    -56.21556623	      0.03656606	     -0.01920141	     17.30462891	    -12.36596441	      0.00000000	      0.00000000	     -0.42736853	      7.14110562	     -1.33730104
      0.20200000	     -0.26123556	      0.05176369	      0.92022738	     -2.63065134	     -1.58014559	     -1.23064509	     10.79173973	      3.75375506	     14.00871337	     -0.00353798	     -0.41379539	     -8.37529804	      0.04553409	     -0.02094329	      8.02169844	      3.24971054	      0.00000000	      0.00000000	      4.80986173	      1.52151464	      2.90465056	      0.00404237	     -0.42231068	    -56.58526765	      0.03647707	     -0.01918997	     17.31503394	    -11.97967680	      0.00000000	      0.00000000	     -0.45607473	      7.08052401	     -1.23360400
      0.20450000	     -0.26102537	      0.05425790	      0.92048694	     -2.61624535	     -1.52788139	     -1.27380744	     10.56313394	      3.71843979	     14.07603584	     -0.00354998	     -0.41378947	     -8.30759491	      0.04554474	     -0.02094675	      7.97225069	      3.39992741	      0.00000000	      0.00000000	      5.18707720	      1.50175082	      2.75365125	      0.00407699	     -0.42242876	    -57.03237113	      0.03636915	     -0.01917616	     17.32719925	    -11.42307711	      0.00000000	      0.00000000	     -0.49059615	      6.99546678	     -1.10145641
      0.20700000	     -0.26081439	      0.05674390	      0.92074122	     -2.60342302	     -1.46563509	     -1.31836493	     10.33715076	      3.67216628	     14.15211111	     -0.00356203	     -0.41378351	     -8.23934729	      0.04555547	     -0.02095023	      7.92216916	      3.55058405	      0.00000000	      0.00000000	      5.56557542	      1.49335561	      2.60608796	      0.00410896	     -0.42254159	    -57.45783650	      0.03626614	     -0.01916305	     17.33835830	    -10.91851099	      0.00000000	      0.00000000	     -0.52332520	      6.89806675	     -0.96839780
      0.20950000	     -0.26060506	      0.05922105	      0.92099227	     -2.59159549	     -1.39382836	     -1.36282688	     10.11284921	      3.61494990	     14.23344706	     -0.00357429	     -0.41377743	     -8.16962309	      0.04556643	     -0.02095379	      7.87075859	      3.69792361	      0.00000000	      0.00000000	      5.94662871	      1.49636396	      2.46271083	      0.00413827	     -0.42264856	    -57.85959138	      0.03616858	     -0.01915068	     17.34852864	    -10.53785918	      0.00000000	      0.00000000	     -0.55488691	      6.78889099	     -0.83596093
      0.21150000	     -0.26043894	      0.06119675	      0.92119158	     -2.58208128	     -1.33107970	     -1.39789278	      9.93350420	      3.56294769	     14.30001861	     -0.00358435	     -0.41377243	     -8.11221757	      0.04557544	     -0.02095672	      7.82824437	      3.81176702	      0.00000000	      0.00000000	      6.25225931	      1.50505440	      2.35107234	      0.00415995	     -0.42273008	    -58.16480406	      0.03609428	     -0.01914131	     17.35602088	    -10.30897135	      0.00000000	      0.00000000	     -0.58016451	      6.69485850	     -0.73087305
      0.21400000	     -0.26023197	      0.06365961	      0.92143832	     -2.56964582	     -1.24845808	     -1.44117073	      9.70874090	      3.49296526	     14.38308619	     -0.00359726	     -0.41376599	     -8.03828760	      0.04558704	     -0.02096050	      7.77324310	      3.94858869	      0.00000000	      0.00000000	      6.63337574	      1.52050704	      2.21511427	      0.00418512	     -0.42282756	    -58.52861746	      0.03600552	     -0.01913014	     17.36469174	    -10.05554674	      0.00000000	      0.00000000	     -0.61236649	      6.57170224	     -0.60052071
      0.21650000	     -0.26002426	      0.06611574	      0.92168144	     -2.55634032	     -1.16321080	     -1.48430912	      9.48309521	      3.41994628	     14.46509414	     -0.00361043	     -0.41375941	     -7.96250399	      0.04559892	     -0.02096438	      7.71657085	      4.08158994	      0.00000000	      0.00000000	      7.01145299	      1.53822715	      2.08275343	      0.00420840	     -0.42292066	    -58.87499420	      0.03592080	     -0.01911953	     17.37268848	     -9.77011105	      0.00000000	      0.00000000	     -0.64560872	      6.44457711	     -0.47086112
      0.21900000	     -0.25981483	      0.06856559	      0.92192055	     -2.54197471	     -1.07609975	     -1.52775149	      9.25649966	      3.34495182	     14.54594000	     -0.00362375	     -0.41375274	     -7.88554533	      0.04561096	     -0.02096831	      7.65871648	      4.21434120	      0.00000000	      0.00000000	      7.38529202	      1.55712272	      1.95367362	      0.00422989	     -0.42300943	    -59.20423186	      0.03584009	     -0.01910945	     17.38005952	     -9.42329411	      0.00000000	      0.00000000	     -0.68016111	      6.31433883	     -0.34152866
      0.22100000	     -0.25964603	      0.07052098	      0.92210908	     -2.52968624	     -1.00483979	     -1.56282768	      9.07458694	      3.28334080	     14.60988760	     -0.00363445	     -0.41374736	     -7.82344151	      0.04562067	     -0.02097149	      7.61180582	      4.32268124	      0.00000000	      0.00000000	      7.68128624	      1.57343464	      1.85269762	      0.00424580	     -0.42307700	    -59.45423197	      0.03577869	     -0.01910180	     17.38550903	     -9.11265370	      0.00000000	      0.00000000	     -0.70879702	      6.20766470	     -0.23826173
      0.22350000	     -0.25943380	      0.07295956	      0.92234182	     -2.51332173	     -0.91318719	     -1.60709473	      8.84644710	      3.20361203	     14.68915201	     -0.00364787	     -0.41374060	     -7.74520791	      0.04563288	     -0.02097549	      7.55242635	      4.46089585	      0.00000000	      0.00000000	      8.04778659	      1.59623880	      1.72922560	      0.00426403	     -0.42315660	    -59.74802692	      0.03570639	     -0.01909282	     17.39175268	     -8.71300133	      0.00000000	      0.00000000	     -0.74584347	      6.07056766	     -0.10950837
      0.22600000	     -0.25922028	      0.07539177	      0.92257150	     -2.49603230	     -0.81791661	     -1.65210587	      8.61788998	      3.12004758	     14.76863672	     -0.00366129	     -0.41373382	     -7.66664412	      0.04564512	     -0.02097951	      7.49247551	      4.60101295	      0.00000000	      0.00000000	      8.41087181	      1.62272317	      1.60828066	      0.00428040	     -0.42323021	    -60.01906602	      0.03563957	     -0.01908454	     17.39736098	     -8.32852315	      0.00000000	      0.00000000	     -0.78407160	      5.92851955	      0.01900945
      0.22850000	     -0.25900514	      0.07781767	      0.92279807	     -2.47799348	     -0.71858770	     -1.69833675	      8.38929764	      3.03218279	     14.84965326	     -0.00367466	     -0.41372705	     -7.58801467	      0.04565735	     -0.02098352	      7.43215171	      4.74057930	      0.00000000	      0.00000000	      8.77062151	      1.65338146	      1.48916321	      0.00429494	     -0.42329748	    -60.26620817	      0.03557853	     -0.01907699	     17.40234957	     -7.96938359	      0.00000000	      0.00000000	     -0.82328918	      5.78109770	      0.14762624
      0.23050000	     -0.25883156	      0.07975408	      0.92297699	     -2.46301219	     -0.63619572	     -1.73651312	      8.20643809	      2.95878914	     14.91633137	     -0.00368531	     -0.41372163	     -7.52510449	      0.04566712	     -0.02098673	      7.38365431	      4.85054931	      0.00000000	      0.00000000	      9.05571384	      1.68084890	      1.39479370	      0.00430533	     -0.42334666	    -60.44653775	      0.03553393	     -0.01907149	     17.40591503	     -7.69563406	      0.00000000	      0.00000000	     -0.85538110	      5.65932090	      0.25082674
      0.23300000	     -0.25861249	      0.08216953	      0.92319745	     -2.44356376	     -0.52976248	     -1.78595422	      7.97787136	      2.86340098	     15.00258181	     -0.00369856	     -0.41371489	     -7.44655961	      0.04567928	     -0.02099074	      7.32281219	      4.98661456	      0.00000000	      0.00000000	      9.40822265	      1.71851081	      1.27770214	      0.00431684	     -0.42340235	    -60.65047080	      0.03548342	     -0.01906528	     17.40987225	     -7.35794315	      0.00000000	      0.00000000	     -0.89640555	      5.50258930	      0.38034827
      0.23550000	     -0.25839130	      0.08457969	      0.92341422	     -2.42321002	     -0.41993118	     -1.83728903	      7.74916273	      2.76435209	     15.09184773	     -0.00371174	     -0.41370815	     -7.36803362	      0.04569142	     -0.02099474	      7.26165967	      5.12054595	      0.00000000	      0.00000000	      9.75596213	      1.75932854	      1.16145687	      0.00432682	     -0.42345174	    -60.83099940	      0.03543865	     -0.01905978	     17.41330960	     -7.01261025	      0.00000000	      0.00000000	     -0.93852775	      5.34139117	      0.51031241
      0.23800000	     -0.25816856	      0.08698479	      0.92362727	     -2.40180217	     -0.30711808	     -1.89023611	      7.52004798	      2.66195966	     15.18322708	     -0.00372489	     -0.41370141	     -7.28926800	      0.04570356	     -0.02099875	      7.19999302	      5.25117436	      0.00000000	      0.00000000	     10.09863354	      1.80287400	      1.04617985	      0.00433538	     -0.42349491	    -60.98859332	      0.03539953	     -0.01905499	     17.41626027	     -6.65329059	      0.00000000	      0.00000000	     -0.98187812	      5.17625314	      0.64031806
